<?xml version="1.0" encoding="UTF-8"?>
<svg width="300px" height="112px" viewBox="0 0 300 112" version="1.1" xmlns="http://www.w3.org/2000/svg" xmlns:xlink="http://www.w3.org/1999/xlink">
    <!-- Generator: Sketch 46.2 (44496) - http://www.bohemiancoding.com/sketch -->
    <title>Group</title>
    <desc>Created with Sketch.</desc>
    <defs></defs>
    <g id="Page-1" stroke="none" stroke-width="1" fill="none" fill-rule="evenodd">
        <g id="logo" transform="translate(-497.000000, -251.000000)">
            <g id="Group" transform="translate(497.000000, 251.000000)">
                <rect id="Rectangle" fill="#DD4C39" x="0.422334439" y="0.21146349" width="112.088711" height="111.788537"></rect>
                <polygon id="path7_fill" fill="#333333" fill-rule="nonzero" points="289.404124 59.7865597 299.732253 59.7865597 299.732253 102.448791 290.012518 102.448791 270.693667 76.948781 270.693667 102.448791 260.304566 102.448791 260.304566 59.7865597 270.085272 59.7865597 289.465096 85.4691036"></polygon>
                <path d="M229.39489,59.117107 C233.728409,59.117107 237.636716,60.0705674 241.119809,61.9774843 C244.643328,63.8844104 247.397408,66.5013458 249.381915,69.8283168 C251.407511,73.1553012 252.418851,76.8879557 252.418851,81.0263336 C252.418851,85.2053502 251.407511,88.9786435 249.381915,92.3462134 C247.397408,95.7137834 244.643328,98.3712379 241.119809,100.31871 C237.636716,102.266182 233.728409,103.239918 229.39489,103.239918 C225.06137,103.239918 221.132784,102.286501 217.609264,100.379535 C214.126303,98.4320632 211.372224,95.7746087 209.347158,92.4070387 C207.362651,88.9989628 206.370398,85.2053502 206.370398,81.0263336 C206.370398,76.8879557 207.362651,73.1553012 209.347158,69.8283168 C211.372224,66.5013458 214.126303,63.8844104 217.609264,61.9774843 C221.132784,60.0705674 225.06137,59.117107 229.39489,59.117107 Z M229.516436,68.5502685 C227.410383,68.5502685 225.446156,69.0980016 223.623623,70.1934678 C221.841517,71.2889341 220.42405,72.8104032 219.37109,74.7578751 C218.317997,76.6648411 217.791517,78.7746024 217.791517,81.0872917 C217.791517,83.440487 218.317997,85.590887 219.37109,87.5383589 C220.46461,89.4451921 221.902356,90.9667542 223.68433,92.1027794 C225.466303,93.198166 227.410383,93.7459921 229.516436,93.7459921 C231.622489,93.7459921 233.546156,93.198166 235.287703,92.1027794 C237.069809,90.9667542 238.466996,89.4451921 239.479529,87.5383589 C240.492062,85.590887 240.998262,83.440487 240.998262,81.0872917 C240.998262,78.7746024 240.492062,76.6648411 239.479529,74.7578751 C238.466996,72.8104032 237.069809,71.2889341 235.287703,70.1934678 C233.546156,69.0980016 231.622489,68.5502685 229.516436,68.5502685 Z" id="path6_fill" fill="#333333" fill-rule="nonzero"></path>
                <path d="M196.797614,72.6277945 C194.529588,71.2889341 192.099588,70.1934678 189.507482,69.3414356 C186.955935,68.4894166 184.809455,68.0634005 183.067909,68.0634005 C181.690869,68.0634005 180.597349,68.3271273 179.787349,68.8545676 C179.017909,69.3414356 178.633122,70.0717508 178.633122,71.0455001 C178.633122,71.9786637 178.977349,72.7698972 179.665935,73.4190545 C180.354389,74.0275731 181.204948,74.5347605 182.217482,74.9404838 C183.229882,75.3055684 184.728468,75.7925692 186.712975,76.4010877 C189.669455,77.2531731 192.099588,78.1051257 194.003108,78.9572111 C195.947054,79.8091636 197.607614,81.1277976 198.984654,82.9129802 C200.361694,84.6576569 201.050147,86.9500269 201.050147,89.7900901 C201.050147,92.6301534 200.300854,95.0646261 198.802401,97.0932427 C197.303814,99.0812206 195.238321,100.582463 192.605788,101.596838 C190.013814,102.61108 187.118041,103.118267 183.918468,103.118267 C180.394948,103.118267 176.871429,102.509616 173.347776,101.292446 C169.864816,100.03477 166.847496,98.330732 164.29595,96.180332 L168.609323,87.4774008 C170.755803,89.3843668 173.287069,90.9464348 176.203122,92.1636047 C179.159602,93.3807747 181.771856,93.9894261 184.039882,93.9894261 C185.700442,93.9894261 186.996495,93.685034 187.928041,93.0765154 C188.900015,92.467864 189.386068,91.5752727 189.386068,90.3987415 C189.386068,89.4250055 189.021561,88.6135589 188.292548,87.9642688 C187.603962,87.3151115 186.712975,86.8080569 185.619455,86.4428395 C184.566495,86.0371162 183.067909,85.5705676 181.123962,85.0430609 C178.207909,84.2316142 175.798056,83.4201676 173.894536,82.6087209 C171.991016,81.7566356 170.350736,80.4989597 168.973829,78.8354277 C167.637216,77.1313897 166.969043,74.8796585 166.969043,72.0801012 C166.969043,69.442873 167.657496,67.1302236 169.034536,65.142166 C170.452003,63.1540952 172.43651,61.6326128 174.988056,60.5777322 C177.580162,59.4822659 180.577202,58.9345328 183.979175,58.9345328 C187.057202,58.9345328 190.094801,59.3808285 193.091841,60.273433 C196.088881,61.125452 198.721414,62.2817834 200.98944,63.7424006 L196.797614,72.6277945 Z" id="path5_fill" fill="#333333" fill-rule="nonzero"></path>
                <path d="M149.557909,102.448791 L146.641856,94.902204 L128.234404,94.902204 L125.257657,102.448791 L113.836524,102.448791 L132.12243,59.7865597 L143.543549,59.7865597 L161.404242,102.448791 L149.557909,102.448791 Z M131.57567,86.3820142 L143.361296,86.3820142 L137.529323,71.1672171 L131.57567,86.3820142 Z" id="path4_fill" fill="#333333" fill-rule="nonzero"></path>
                <polygon id="path12_fill" fill="#FFFFFF" fill-rule="nonzero" points="73.5146244 60.0807842 106.878115 60.0807842 106.878115 68.904941 84.5553314 68.904941 84.5553314 76.8224822 104.706053 76.8224822 104.706053 85.5862387 84.5553314 85.6466656 84.5553314 93.6246071 107.48134 93.6246071 107.48134 102.448791 73.5146244 102.448791"></polygon>
                <path d="M54.6529308,102.448791 L48.4991311,90.7235858 L48.2577614,90.7235858 L40.2940206,90.7235858 L40.2940206,102.448791 L29.2533137,102.448791 L29.2533137,60.0807842 L48.2577614,60.0807842 C53.8484978,60.0807842 58.1723417,61.3903037 61.2291605,64.0093413 C64.3261414,66.5880949 65.8746981,70.2345979 65.8746981,74.9488506 C65.8746981,78.1319526 65.2311782,80.8920664 63.9440059,83.2290593 C62.6569661,85.5258119 60.7867158,87.31883 58.3332548,88.6082466 L67.1415906,102.448791 L54.6529308,102.448791 Z M40.2940206,81.8994024 L48.3180707,81.8994024 C50.5704566,81.8994024 52.3000736,81.3353739 53.5066568,80.2070514 C54.7535346,79.0788617 55.3769072,77.4470704 55.3769072,75.3115447 C55.3769072,73.2565793 54.7535346,71.6851485 53.5066568,70.5972389 C52.3000736,69.4690359 50.5704566,68.904941 48.3180707,68.904941 L40.2940206,68.904941 L40.2940206,81.8994024 Z" id="path11_fill" fill="#FFFFFF" fill-rule="nonzero"></path>
            </g>
        </g>
    </g>
</svg>